<!DOCTYPE svg PUBLIC "-//W3C//DTD SVG 1.1//EN" "https://www.w3.org/Graphics/SVG/1.1/DTD/svg11.dtd">
<svg xmlns="http://www.w3.org/2000/svg" id="sfn-svg" class="sfn-workflow-graph" width="615" height="574">
    
    
<g transform="translate(12,19.625)"><g class="nodes"><g class="node-container" transform="translate(410.04999923706055,18.75)"><g class="node anchor"><circle class="shape" x="-16.375" y="-8.75" r="26.375"/><text class="label"><tspan xml:space="preserve" text-anchor="middle" alignment-baseline="central">Start</tspan></text></g></g><g class="node-container" transform="translate(173.55000019073486,518.75)"><g class="node anchor"><circle class="shape" x="-12.675000190734863" y="-8.75" r="22.675000190734863"/><text class="label"><tspan xml:space="preserve" text-anchor="middle" alignment-baseline="central">End</tspan></text></g></g><g class="node-container" transform="translate(410.04999923706055,81.25)"><g class="node state Task NotYetStarted"><rect class="shape" rx="5" ry="5" x="-67.25" y="-18.75" width="134.5" height="37.5"/><text class="label"><tspan xml:space="preserve" text-anchor="middle" alignment-baseline="central">URL Health Check</tspan></text></g></g><g class="node-container" transform="translate(266.8541660308838,143.75)"><g class="node state Choice NotYetStarted"><rect class="shape" rx="5" ry="5" x="-98.55000305175781" y="-18.75" width="197.10000610351562" height="37.5"/><text class="label"><tspan xml:space="preserve" text-anchor="middle" alignment-baseline="central">Did URL Health Check pass?</tspan></text></g></g><g class="node-container" transform="translate(251.8541660308838,206.25)"><g class="node state Task NotYetStarted"><rect class="shape" rx="5" ry="5" x="-58.20000076293945" y="-18.75" width="116.4000015258789" height="37.5"/><text class="label"><tspan xml:space="preserve" text-anchor="middle" alignment-baseline="central">Route53 Check</tspan></text></g></g><g class="node-container" transform="translate(441.09166622161865,456.25)"><g class="node state Task NotYetStarted"><rect class="shape" rx="5" ry="5" x="-66.89166641235352" y="-18.75" width="133.78333282470703" height="37.5"/><text class="label"><tspan xml:space="preserve" text-anchor="middle" alignment-baseline="central">Restart the server</tspan></text></g></g><g class="node-container" transform="translate(155.48333358764648,456.25)"><g class="node state Task NotYetStarted"><rect class="shape" rx="5" ry="5" x="-41.25" y="-18.75" width="82.5" height="37.5"/><text class="label"><tspan xml:space="preserve" text-anchor="middle" alignment-baseline="central">OpsGenie</tspan></text></g></g><g class="node-container" transform="translate(251.8541660308838,268.75)"><g class="node state Choice NotYetStarted"><rect class="shape" rx="5" ry="5" x="-89.5" y="-18.75" width="179" height="37.5"/><text class="label"><tspan xml:space="preserve" text-anchor="middle" alignment-baseline="central">Did Route53 Check pass?</tspan></text></g></g><g class="node-container" transform="translate(281.02499771118164,331.25)"><g class="node state Task NotYetStarted"><rect class="shape" rx="5" ry="5" x="-44.24166488647461" y="-18.75" width="88.48332977294922" height="37.5"/><text class="label"><tspan xml:space="preserve" text-anchor="middle" alignment-baseline="central">SSH Check</tspan></text></g></g><g class="node-container" transform="translate(281.02499771118164,393.75)"><g class="node state Choice NotYetStarted"><rect class="shape" rx="5" ry="5" x="-75.54166412353516" y="-18.75" width="151.0833282470703" height="37.5"/><text class="label"><tspan xml:space="preserve" text-anchor="middle" alignment-baseline="central">Did SSH Check pass?</tspan></text></g></g><g class="node-container" transform="translate(37.11666679382324,456.25)"><g class="node state Succeed NotYetStarted"><rect class="shape" rx="5" ry="5" x="-37.11666679382324" y="-18.75" width="74.23333358764648" height="37.5"/><text class="label"><tspan xml:space="preserve" text-anchor="middle" alignment-baseline="central">All good</tspan></text></g></g><g class="node-container" transform="translate(296.02499771118164,456.25)"><g class="node state Task NotYetStarted"><rect class="shape" rx="5" ry="5" x="-27.08333396911621" y="-18.75" width="54.16666793823242" height="37.5"/><text class="label"><tspan xml:space="preserve" text-anchor="middle" alignment-baseline="central">Slack</tspan></text></g></g><g class="node-container" transform="translate(495.1041660308838,518.75)"><g class="node state Wait NotYetStarted"><rect class="shape" rx="5" ry="5" x="-95" y="-18.75" width="190" height="37.5"/><text class="label"><tspan xml:space="preserve" text-anchor="middle" alignment-baseline="central">Wait for the server to boot</tspan></text></g></g></g><g class="edges"><g class="edge"><path class="path" style="fill: none;" marker-end="url(#arrowhead77)" d="M342.79999923706055,95.92614282445021L330.14236036936444,98.6884523537085C317.4847215016683,101.4507618829668,292.169443766276,106.9753809414834,279.5118048985799,111.82102380407503C266.8541660308838,116.66666666666666,266.8541660308838,120.83333333333333,266.8541660308838,122.91666666666666L266.8541660308838,125"/><defs><marker id="arrowhead77" viewBox="0 0 10 10" refX="9" refY="5" markerUnits="strokeWidth" markerWidth="8" markerHeight="6" orient="auto"><path d="M 0 0 L 10 5 L 0 10 z"/></marker></defs></g><g class="edge"><path class="path" style="fill: none;" marker-end="url(#arrowhead78)" d="M410.04999923706055,45.125L410.0499992370605,45.9375C410.04999923706055,46.75,410.04999923706055,48.37499999999999,410.0499992370605,51.27083333333333C410.04999923706055,54.16666666666666,410.04999923706055,58.33333333333333,410.0499992370605,60.416666666666664L410.04999923706055,62.5"/><defs><marker id="arrowhead78" viewBox="0 0 10 10" refX="9" refY="5" markerUnits="strokeWidth" markerWidth="8" markerHeight="6" orient="auto"><path d="M 0 0 L 10 5 L 0 10 z"/></marker></defs></g><g class="edge"><path class="path" style="fill: none;" marker-end="url(#arrowhead79)" d="M257.8541660308838,162.5L256.8541660308838,164.58333333333331C255.8541660308838,166.66666666666666,253.8541660308838,170.83333333333331,252.85416603088376,175C251.8541660308838,179.16666666666666,251.8541660308838,183.33333333333331,251.85416603088376,185.41666666666666L251.8541660308838,187.5"/><defs><marker id="arrowhead79" viewBox="0 0 10 10" refX="9" refY="5" markerUnits="strokeWidth" markerWidth="8" markerHeight="6" orient="auto"><path d="M 0 0 L 10 5 L 0 10 z"/></marker></defs></g><g class="edge"><path class="path" style="fill: none;" marker-end="url(#arrowhead80)" d="M354.73916511535646,162.5L364.5041650136312,164.58333333333331C374.26916491190593,166.66666666666666,393.7991647084554,170.83333333333331,403.5641646067302,178.125C413.3291645050049,185.41666666666666,413.3291645050049,195.83333333333331,413.3291645050049,206.25C413.3291645050049,216.66666666666666,413.3291645050049,227.08333333333331,413.3291645050049,237.49999999999997C413.3291645050049,247.91666666666663,413.3291645050049,258.3333333333333,413.3291645050049,268.75C413.3291645050049,279.16666666666663,413.3291645050049,289.5833333333333,413.3291645050049,300C413.3291645050049,310.41666666666663,413.3291645050049,320.8333333333333,413.3291645050049,331.25C413.3291645050049,341.66666666666663,413.3291645050049,352.0833333333333,413.3291645050049,362.5C413.3291645050049,372.91666666666663,413.3291645050049,383.3333333333333,413.3291645050049,393.75C413.3291645050049,404.16666666666663,413.3291645050049,414.5833333333333,415.1799979527791,421.875C417.0308314005534,429.16666666666663,420.7324982961019,433.33333333333326,422.5833317438761,435.41666666666663L424.4341651916504,437.5"/><defs><marker id="arrowhead80" viewBox="0 0 10 10" refX="9" refY="5" markerUnits="strokeWidth" markerWidth="8" markerHeight="6" orient="auto"><path d="M 0 0 L 10 5 L 0 10 z"/></marker></defs></g><g class="edge"><path class="path" style="fill: none;" marker-end="url(#arrowhead81)" d="M168.30416297912598,159.16867504665348L151.4395802815755,161.80722920554456C134.57499758402506,164.44578336443564,100.84583218892415,169.7228916822178,83.9812494913737,177.56977917444223C67.11666679382324,185.41666666666666,67.11666679382324,195.83333333333331,67.11666679382324,206.25C67.11666679382324,216.66666666666666,67.11666679382324,227.08333333333331,67.11666679382324,237.49999999999997C67.11666679382324,247.91666666666663,67.11666679382324,258.3333333333333,67.11666679382324,268.75C67.11666679382324,279.16666666666663,67.11666679382324,289.5833333333333,67.11666679382324,300C67.11666679382324,310.41666666666663,67.11666679382324,320.8333333333333,67.11666679382324,331.25C67.11666679382324,341.66666666666663,67.11666679382324,352.0833333333333,67.11666679382324,362.5C67.11666679382324,372.91666666666663,67.11666679382324,383.3333333333333,67.11666679382324,393.75C67.11666679382324,404.16666666666663,67.11666679382324,414.5833333333333,74.96944459279378,422.5687240698885C82.82222239176431,430.55411480644375,98.5277779897054,436.1082296128875,106.38055578867595,438.8852870161094L114.23333358764648,441.66234441933136"/><defs><marker id="arrowhead81" viewBox="0 0 10 10" refX="9" refY="5" markerUnits="strokeWidth" markerWidth="8" markerHeight="6" orient="auto"><path d="M 0 0 L 10 5 L 0 10 z"/></marker></defs></g><g class="edge"><path class="path" style="fill: none;" marker-end="url(#arrowhead82)" d="M251.8541660308838,225L251.85416603088376,227.08333333333331C251.8541660308838,229.16666666666666,251.8541660308838,233.33333333333331,251.85416603088376,237.49999999999997C251.8541660308838,241.66666666666663,251.8541660308838,245.83333333333331,251.85416603088376,247.91666666666666L251.8541660308838,250"/><defs><marker id="arrowhead82" viewBox="0 0 10 10" refX="9" refY="5" markerUnits="strokeWidth" markerWidth="8" markerHeight="6" orient="auto"><path d="M 0 0 L 10 5 L 0 10 z"/></marker></defs></g><g class="edge"><path class="path" style="fill: none;" marker-end="url(#arrowhead83)" d="M269.3566650390625,287.5L271.30138715108234,289.5833333333333C273.2461092631022,291.66666666666663,277.1355534871419,295.8333333333333,279.0802755991618,300C281.02499771118164,304.16666666666663,281.02499771118164,308.3333333333333,281.02499771118164,310.41666666666663L281.02499771118164,312.5"/><defs><marker id="arrowhead83" viewBox="0 0 10 10" refX="9" refY="5" markerUnits="strokeWidth" markerWidth="8" markerHeight="6" orient="auto"><path d="M 0 0 L 10 5 L 0 10 z"/></marker></defs></g><g class="edge"><path class="path" style="fill: none;" marker-end="url(#arrowhead84)" d="M341.3541660308838,283.3569984190548L358.34999910990393,286.130832015879C375.34583218892413,288.9046656127032,409.3374983469645,294.4523328063516,426.3333314259847,302.4344997365091C443.3291645050049,310.41666666666663,443.3291645050049,320.8333333333333,443.3291645050049,331.25C443.3291645050049,341.66666666666663,443.3291645050049,352.0833333333333,443.3291645050049,362.5C443.3291645050049,372.91666666666663,443.3291645050049,383.3333333333333,443.3291645050049,393.75C443.3291645050049,404.16666666666663,443.3291645050049,414.5833333333333,443.1799979527791,421.875C443.0308314005534,429.16666666666663,442.7324982961019,433.33333333333326,442.5833317438761,435.41666666666663L442.4341651916504,437.5"/><defs><marker id="arrowhead84" viewBox="0 0 10 10" refX="9" refY="5" markerUnits="strokeWidth" markerWidth="8" markerHeight="6" orient="auto"><path d="M 0 0 L 10 5 L 0 10 z"/></marker></defs></g><g class="edge"><path class="path" style="fill: none;" marker-end="url(#arrowhead85)" d="M203.03166656494142,287.5L197.60694440205893,289.5833333333333C192.18222223917644,291.66666666666663,181.33277791341146,295.8333333333333,175.90805575052897,303.125C170.48333358764648,310.41666666666663,170.48333358764648,320.8333333333333,170.48333358764648,331.25C170.48333358764648,341.66666666666663,170.48333358764648,352.0833333333333,170.48333358764648,362.5C170.48333358764648,372.91666666666663,170.48333358764648,383.3333333333333,170.48333358764648,393.75C170.48333358764648,404.16666666666663,170.48333358764648,414.5833333333333,169.48333358764648,421.875C168.48333358764648,429.16666666666663,166.48333358764648,433.33333333333326,165.48333358764648,435.41666666666663L164.48333358764648,437.5"/><defs><marker id="arrowhead85" viewBox="0 0 10 10" refX="9" refY="5" markerUnits="strokeWidth" markerWidth="8" markerHeight="6" orient="auto"><path d="M 0 0 L 10 5 L 0 10 z"/></marker></defs></g><g class="edge"><path class="path" style="fill: none;" marker-end="url(#arrowhead86)" d="M281.02499771118164,350L281.02499771118164,352.0833333333333C281.02499771118164,354.16666666666663,281.02499771118164,358.3333333333333,281.02499771118164,362.5C281.02499771118164,366.66666666666663,281.02499771118164,370.8333333333333,281.02499771118164,372.9166666666667L281.02499771118164,375"/><defs><marker id="arrowhead86" viewBox="0 0 10 10" refX="9" refY="5" markerUnits="strokeWidth" markerWidth="8" markerHeight="6" orient="auto"><path d="M 0 0 L 10 5 L 0 10 z"/></marker></defs></g><g class="edge"><path class="path" style="fill: none;" marker-end="url(#arrowhead87)" d="M205.48333358764648,403.4285419136025L177.42222245534256,407.02378492800204C149.36111132303873,410.61902794240166,93.23888905843097,417.8095139712008,65.1777779261271,423.4880903189337C37.11666679382324,429.16666666666663,37.11666679382324,433.33333333333326,37.116666793823235,435.41666666666663L37.11666679382324,437.5"/><defs><marker id="arrowhead87" viewBox="0 0 10 10" refX="9" refY="5" markerUnits="strokeWidth" markerWidth="8" markerHeight="6" orient="auto"><path d="M 0 0 L 10 5 L 0 10 z"/></marker></defs></g><g class="edge"><path class="path" style="fill: none;" marker-end="url(#arrowhead88)" d="M356.5666618347168,404.9815137728002L379.00694004694617,408.3179281440001C401.4472182591756,411.65434251520014,446.3277746836344,418.32717125760007,465.4269419034322,423.74691896213335C484.52610912322996,429.16666666666663,477.84388713836665,433.33333333333326,474.50277614593506,435.41666666666663L471.1616651535034,437.5"/><defs><marker id="arrowhead88" viewBox="0 0 10 10" refX="9" refY="5" markerUnits="strokeWidth" markerWidth="8" markerHeight="6" orient="auto"><path d="M 0 0 L 10 5 L 0 10 z"/></marker></defs></g><g class="edge"><path class="path" style="fill: none;" marker-end="url(#arrowhead89)" d="M256.8624984741211,412.5L254.1777763366699,414.5833333333333C251.49305419921873,416.66666666666663,246.12360992431638,420.8333333333333,236.1020824432373,425.60545439682846C226.0805549621582,430.37757546032367,211.40694427490234,435.75515092064734,204.0701389312744,438.4439386508092L196.73333358764648,441.1327263809711"/><defs><marker id="arrowhead89" viewBox="0 0 10 10" refX="9" refY="5" markerUnits="strokeWidth" markerWidth="8" markerHeight="6" orient="auto"><path d="M 0 0 L 10 5 L 0 10 z"/></marker></defs></g><g class="edge"><path class="path" style="fill: none;" marker-end="url(#arrowhead90)" d="M290.02499771118164,412.5L291.02499771118164,414.5833333333333C292.02499771118164,416.66666666666663,294.02499771118164,420.8333333333333,295.02499771118164,425C296.02499771118164,429.16666666666663,296.02499771118164,433.33333333333326,296.02499771118164,435.41666666666663L296.02499771118164,437.5"/><defs><marker id="arrowhead90" viewBox="0 0 10 10" refX="9" refY="5" markerUnits="strokeWidth" markerWidth="8" markerHeight="6" orient="auto"><path d="M 0 0 L 10 5 L 0 10 z"/></marker></defs></g><g class="edge"><path class="path" style="fill: none;" marker-end="url(#arrowhead91)" d="M37.11666679382324,475L37.116666793823235,477.08333333333326C37.11666679382324,479.16666666666663,37.11666679382324,483.3333333333333,56.171785899233925,489.7812340140885C75.22690500464462,496.22913469484376,113.337143215466,504.95826938968753,132.3922623208767,509.3228367371094L151.4473814262874,513.6874040845313"/><defs><marker id="arrowhead91" viewBox="0 0 10 10" refX="9" refY="5" markerUnits="strokeWidth" markerWidth="8" markerHeight="6" orient="auto"><path d="M 0 0 L 10 5 L 0 10 z"/></marker></defs></g><g class="edge"><path class="path" style="fill: none;" marker-end="url(#arrowhead92)" d="M441.09166622161865,475L441.0916662216186,477.08333333333326C441.09166622161865,479.16666666666663,441.09166622161865,483.3333333333333,444.6924995422363,487.49999999999994C448.29333286285396,491.66666666666663,455.49499950408926,495.8333333333333,459.0958328247069,497.91666666666663L462.6966661453247,500"/><defs><marker id="arrowhead92" viewBox="0 0 10 10" refX="9" refY="5" markerUnits="strokeWidth" markerWidth="8" markerHeight="6" orient="auto"><path d="M 0 0 L 10 5 L 0 10 z"/></marker></defs></g><g class="edge"><path class="path" style="fill: none;" marker-end="url(#arrowhead93)" d="M523.8316659927368,500L527.0236104329426,497.91666666666663C530.2155548731486,495.8333333333333,536.5994437535603,491.66666666666663,539.7913881937662,484.375C542.9833326339722,477.0833333333333,542.9833326339722,466.66666666666663,542.983332633972,456.24999999999994C542.9833326339722,445.83333333333326,542.9833326339722,435.41666666666663,542.983332633972,425C542.9833326339722,414.5833333333333,542.9833326339722,404.16666666666663,542.983332633972,393.75C542.9833326339722,383.3333333333333,542.9833326339722,372.91666666666663,542.983332633972,362.49999999999994C542.9833326339722,352.0833333333333,542.9833326339722,341.66666666666663,542.983332633972,331.25C542.9833326339722,320.8333333333333,542.9833326339722,310.41666666666663,542.983332633972,300C542.9833326339722,289.5833333333333,542.9833326339722,279.16666666666663,542.983332633972,268.75C542.9833326339722,258.3333333333333,542.9833326339722,247.91666666666663,542.983332633972,237.49999999999997C542.9833326339722,227.08333333333331,542.9833326339722,216.66666666666666,542.983332633972,206.24999999999997C542.9833326339722,195.83333333333331,542.9833326339722,185.41666666666666,542.983332633972,175C542.9833326339722,164.58333333333331,542.9833326339722,154.16666666666666,542.983332633972,143.75C542.9833326339722,133.33333333333331,542.9833326339722,122.91666666666666,532.0361104011535,115.1348576968341C521.088888168335,107.35304872700154,499.1944437026977,102.20609745400307,488.24722146987904,99.63262181750383L477.29999923706055,97.05914618100462"/><defs><marker id="arrowhead93" viewBox="0 0 10 10" refX="9" refY="5" markerUnits="strokeWidth" markerWidth="8" markerHeight="6" orient="auto"><path d="M 0 0 L 10 5 L 0 10 z"/></marker></defs></g><g class="edge"><path class="path" style="fill: none;" marker-end="url(#arrowhead94)" d="M155.48333358764648,475L155.48333358764648,477.08333333333326C155.48333358764648,479.16666666666663,155.48333358764648,483.3333333333333,156.60294018026528,487.35325556754094C157.72254677288407,491.37317780174857,159.96175995812163,495.24635560349714,161.08136655074043,497.18294450437145L162.20097314335922,499.11953340524576"/><defs><marker id="arrowhead94" viewBox="0 0 10 10" refX="9" refY="5" markerUnits="strokeWidth" markerWidth="8" markerHeight="6" orient="auto"><path d="M 0 0 L 10 5 L 0 10 z"/></marker></defs></g><g class="edge"><path class="path" style="fill: none;" marker-end="url(#arrowhead95)" d="M296.02499771118164,475L296.02499771118164,477.08333333333326C296.02499771118164,479.16666666666663,296.02499771118164,483.3333333333333,279.2743444771935,489.6906648226963C262.52369124320535,496.04799631205935,229.02238477522906,504.5959926241187,212.2717315412409,508.8699907801484L195.52107830725276,513.1439889361781"/><defs><marker id="arrowhead95" viewBox="0 0 10 10" refX="9" refY="5" markerUnits="strokeWidth" markerWidth="8" markerHeight="6" orient="auto"><path d="M 0 0 L 10 5 L 0 10 z"/></marker></defs></g></g></g><style xmlns="http://www.w3.org/1999/xhtml">.node &gt; .shape {stroke: #555555;stroke-width: 0.6px;fill: #FFFFFF;} path {stroke: #555;background-color: #555;stroke-width: 1px;} .node.state.NotYetStarted &gt; .shape,.node.state.Container &gt; .shape {stroke-dasharray: 5 2;} .node.state.Failed &gt; .shape,rect.legend.Failed {fill: #DE322F;} .node.state.CaughtError &gt; .shape,rect.legend.CaughtError {fill: #FFA500;} .node.state.Succeeded &gt; .shape,rect.legend.Succeeded {fill: #2BD62E;} .node.state.InProgress &gt; .shape,rect.legend.InProgress {fill: #53c9ed;} .node.state.Cancelled &gt; .shape,rect.legend.Cancelled {fill: #dddddd;} .node.anchor &gt; .shape {fill: #FFDA75;} .node.state.hovered:not(.selected):not(.NotYetStarted) &gt; .shape,.node.selected &gt; .shape {stroke: #555555;stroke-width: 2px;} .node.state.Container.Failed &gt; .shape {fill: #EE9592;} .node.state.Container.CaughtError &gt; .shape {fill: #FFD27F;} .node.state.Container.Succeeded &gt; .shape {fill: #91EA9A;} .node.state.Container.InProgress &gt; .shape {fill :#A9E4F7;} .node.state.Container.Cancelled &gt; .shape {fill: #EEEEEE;} marker {fill: #555555;} .node.anchor,.node.state.NotYetStarted {cursor: default;} .node.state {cursor: pointer;} tspan .label {font-weight: normal;font-size: 12px;text-shadow: none;} </style></svg>